<svg xmlns="http://www.w3.org/2000/svg" style="display: none;">

 <!-- Header -->

<symbol viewBox="0 -960 960 960" id="icon-dark-mode">
    <path fill="currentColor" d="M480-120q-150 0-255-105T120-480q0-150 105-255t255-105q14 0 27.5 1t26.5 3q-41 29-65.5 75.5T444-660q0 90 63 153t153 63q55 0 101-24.5t75-65.5q2 13 3 26.5t1 27.5q0 150-105 255T480-120Zm0-80q88 0 158-48.5T740-375q-20 5-40 8t-40 3q-123 0-209.5-86.5T364-660q0-20 3-40t8-40q-78 32-126.5 102T200-480q0 116 82 198t198 82Zm-10-270Z"/>
</symbol>

<symbol viewBox="0 -960 960 960" id="icon-light-mode">
    <path fill="currentColor" d="M480-360q50 0 85-35t35-85q0-50-35-85t-85-35q-50 0-85 35t-35 85q0 50 35 85t85 35Zm0 80q-83 0-141.5-58.5T280-480q0-83 58.5-141.5T480-680q83 0 141.5 58.5T680-480q0 83-58.5 141.5T480-280ZM200-440H40v-80h160v80Zm720 0H760v-80h160v80ZM440-760v-160h80v160h-80Zm0 720v-160h80v160h-80ZM256-650l-101-97 57-59 96 100-52 56Zm492 496-97-101 53-55 101 97-57 59Zm-98-550 97-101 59 57-100 96-56-52ZM154-212l101-97 55 53-97 101-59-57Zm326-268Z"/>
</symbol>

  <symbol viewBox="0 -960 960 960" id="icon-groups">  <!-- About page icon -->
    <path fill="currentColor" d="M0-240v-63q0-43 44-70t116-27q13 0 25 .5t23 2.5q-14 21-21 44t-7 48v65H0Zm240 0v-65q0-32 17.5-58.5T307-410q32-20 76.5-30t96.5-10q53 0 97.5 10t76.5 30q32 20 49 46.5t17 58.5v65H240Zm540 0v-65q0-26-6.5-49T754-397q11-2 22.5-2.5t23.5-.5q72 0 116 26.5t44 70.5v63H780Zm-455-80h311q-10-20-55.5-35T480-370q-55 0-100.5 15T325-320ZM160-440q-33 0-56.5-23.5T80-520q0-34 23.5-57t56.5-23q34 0 57 23t23 57q0 33-23 56.5T160-440Zm640 0q-33 0-56.5-23.5T720-520q0-34 23.5-57t56.5-23q34 0 57 23t23 57q0 33-23 56.5T800-440Zm-320-40q-50 0-85-35t-35-85q0-51 35-85.5t85-34.5q51 0 85.5 34.5T600-600q0 50-34.5 85T480-480Zm0-80q17 0 28.5-11.5T520-600q0-17-11.5-28.5T480-640q-17 0-28.5 11.5T440-600q0 17 11.5 28.5T480-560Zm1 240Zm-1-280Z"/>
  </symbol>

  <symbol viewBox="0 -960 960 960" id="icon-user">
    <path fill="currentColor" d="M480-480q-66 0-113-47t-47-113q0-66 47-113t113-47q66 0 113 47t47 113q0 66-47 113t-113 47ZM160-160v-112q0-34 17.5-62.5T224-378q62-31 126-46.5T480-440q66 0 130 15.5T736-378q29 15 46.5 43.5T800-272v112H160Zm80-80h480v-32q0-11-5.5-20T700-306q-54-27-109-40.5T480-360q-56 0-111 13.5T260-306q-9 5-14.5 14t-5.5 20v32Zm240-320q33 0 56.5-23.5T560-640q0-33-23.5-56.5T480-720q-33 0-56.5 23.5T400-640q0 33 23.5 56.5T480-560Zm0-80Zm0 400Z"></path>
  </symbol>

  <symbol viewBox="0 -960 960 960" id="icon-search">
    <path fill="currentColor" d="M784-120 532-372q-30 24-69 38t-83 14q-109 0-184.5-75.5T120-580q0-109 75.5-184.5T380-840q109 0 184.5 75.5T640-580q0 44-14 83t-38 69l252 252-56 56ZM380-400q75 0 127.5-52.5T560-580q0-75-52.5-127.5T380-760q-75 0-127.5 52.5T200-580q0 75 52.5 127.5T380-400Z"/>
  </symbol>

   <!-- Arrows -->

  <symbol viewBox="0 -960 960 960" id="icon-arrow-down">
    <path fill="currentColor" d="M480-344 240-584l56-56 184 184 184-184 56 56-240 240Z"/>
  </symbol>

  <symbol viewBox="0 -960 960 960" id="icon-arrow-right-alt">
    <path fill="currentColor" d="m560-240-56-58 142-142H160v-80h486L504-662l56-58 240 240-240 240Z"/>
  </symbol>

 <!-- Social media -->

 <symbol viewBox="0 0 48 48" id="icon-facebook">
    <path fill="currentColor" d="M24 0C10.7453 0 0 10.7453 0 24C0 35.255 7.74912 44.6995 18.2026 47.2934V31.3344H13.2538V24H18.2026V20.8397C18.2026 12.671 21.8995 8.8848 29.9194 8.8848C31.44 8.8848 34.0637 9.18336 35.137 9.48096V16.129C34.5706 16.0694 33.5866 16.0397 32.3645 16.0397C28.4294 16.0397 26.9088 17.5306 26.9088 21.4061V24H34.7482L33.4013 31.3344H26.9088V47.8243C38.7926 46.3891 48.001 36.2707 48.001 24C48 10.7453 37.2547 0 24 0Z"/>
</symbol>

<symbol viewBox="0 0 48 48" id="icon-x">
    <path fill="currentColor" d="M36.6526 3.8078H43.3995L28.6594 20.6548L46 43.5797H32.4225L21.7881 29.6759L9.61989 43.5797H2.86886L18.6349 25.56L2 3.8078H15.9222L25.5348 16.5165L36.6526 3.8078ZM34.2846 39.5414H38.0232L13.8908 7.63406H9.87892L34.2846 39.5414Z"/>
</symbol>

<symbol viewBox="0 0 48 48" id="icon-instagram">
  <path fill="currentColor" d="M24 4.3c6.4 0 7.2 0 9.7.2 2.3 0 3.6.5 4.4.8 1.2.4 2 1 2.8 1.8.8.8 1.4 1.6 1.8 2.7.3.9.7 2.2.8 4.5.1 2.5.2 3.3.2 9.7 0 6.4 0 7.2-.2 9.7 0 2.3-.5 3.6-.8 4.4-.4 1.1-1 2-1.8 2.8-.8.8-1.6 1.3-2.8 1.8-.8.3-2 .7-4.4.8l-9.7.1-9.7-.1c-2.3-.1-3.6-.5-4.4-.8-1.2-.5-2-1-2.8-1.8A7.4 7.4 0 0 1 5.3 38c-.3-.8-.7-2-.8-4.4-.1-2.6-.2-3.3-.2-9.7 0-6.4 0-7.2.2-9.7 0-2.4.5-3.6.8-4.5.4-1 1-1.9 1.8-2.7.8-.9 1.6-1.4 2.8-1.8.8-.3 2-.7 4.4-.8 2.5-.2 3.3-.2 9.7-.2ZM24 0l-9.9.1c-2.5.2-4.3.6-5.8 1.2a11.8 11.8 0 0 0-7 7C.7 9.8.3 11.6 0 14L0 24l.1 9.9c.2 2.5.6 4.3 1.2 5.8a11.7 11.7 0 0 0 7 7c1.5.6 3.3 1 5.8 1.1a176 176 0 0 0 19.8 0c2.5 0 4.3-.5 5.8-1 1.6-.7 3-1.5 4.3-2.8 1.3-1.4 2.1-2.7 2.7-4.3.6-1.5 1-3.3 1.1-5.8.1-2.6.2-3.4.2-9.9s0-7.3-.2-9.9c0-2.5-.5-4.3-1-5.8-.7-1.6-1.5-3-2.8-4.3a11.7 11.7 0 0 0-4.3-2.7C38.2.7 36.4.3 34 0L24 0Z M24 11.7a12.3 12.3 0 1 0 0 24.6 12.3 12.3 0 0 0 0-24.6ZM24 32a8 8 0 1 1 0-16 8 8 0 0 1 0 16ZM39.7 11.2a2.9 2.9 0 1 1-5.8 0 2.9 2.9 0 0 1 5.8 0Z"></path>
</symbol>

<symbol viewBox="0 0 48 48" id="icon-linkedin">
    <path fill="currentColor" d="M44.4469 0H3.54375C1.58437 0 0 1.54688 0 3.45938V44.5312C0 46.4437 1.58437 48 3.54375 48H44.4469C46.4062 48 48 46.4438 48 44.5406V3.45938C48 1.54688 46.4062 0 44.4469 0ZM14.2406 40.9031H7.11563V17.9906H14.2406V40.9031ZM10.6781 14.8688C8.39062 14.8688 6.54375 13.0219 6.54375 10.7437C6.54375 8.46562 8.39062 6.61875 10.6781 6.61875C12.9563 6.61875 14.8031 8.46562 14.8031 10.7437C14.8031 13.0125 12.9563 14.8688 10.6781 14.8688ZM40.9031 40.9031H33.7875V29.7656C33.7875 27.1125 33.7406 23.6906 30.0844 23.6906C26.3812 23.6906 25.8187 26.5875 25.8187 29.5781V40.9031H18.7125V17.9906H25.5375V21.1219H25.6312C26.5781 19.3219 28.9031 17.4188 32.3625 17.4188C39.5719 17.4188 40.9031 22.1625 40.9031 28.3313V40.9031Z"/>
</symbol>

<symbol viewBox="0 0 48 48" id="icon-youtube">
    <path fill="currentColor" d="M47.5219 14.4001C47.5219 14.4001 47.0531 11.0907 45.6094 9.6376C43.7812 7.7251 41.7375 7.71572 40.8 7.60322C34.0875 7.11572 24.0094 7.11572 24.0094 7.11572H23.9906C23.9906 7.11572 13.9125 7.11572 7.2 7.60322C6.2625 7.71572 4.21875 7.7251 2.39062 9.6376C0.946875 11.0907 0.4875 14.4001 0.4875 14.4001C0.4875 14.4001 0 18.2907 0 22.172V25.8095C0 29.6907 0.478125 33.5813 0.478125 33.5813C0.478125 33.5813 0.946875 36.8907 2.38125 38.3438C4.20937 40.2563 6.60938 40.1907 7.67813 40.397C11.5219 40.7626 24 40.8751 24 40.8751C24 40.8751 34.0875 40.8563 40.8 40.3782C41.7375 40.2657 43.7812 40.2563 45.6094 38.3438C47.0531 36.8907 47.5219 33.5813 47.5219 33.5813C47.5219 33.5813 48 29.7001 48 25.8095V22.172C48 18.2907 47.5219 14.4001 47.5219 14.4001ZM19.0406 30.2251V16.7345L32.0062 23.5032L19.0406 30.2251Z"/>
</symbol>

<symbol viewBox="0 0 48 48" id="icon-pinterest">
    <path fill="currentColor" d="M24 0C10.7438 0 0 10.7438 0 24C0 34.1719 6.32812 42.8531 15.2531 46.35C15.0469 44.4469 14.85 41.5406 15.3375 39.4688C15.7781 37.5938 18.15 27.5437 18.15 27.5437C18.15 27.5437 17.4281 26.1094 17.4281 23.9813C17.4281 20.6438 19.3594 18.15 21.7687 18.15C23.8125 18.15 24.8063 19.6875 24.8063 21.5344C24.8063 23.5969 23.4937 26.6719 22.8187 29.5219C22.2562 31.9125 24.0187 33.8625 26.3719 33.8625C30.6375 33.8625 33.9187 29.3625 33.9187 22.875C33.9187 17.1281 29.7937 13.1063 23.8969 13.1063C17.0719 13.1063 13.0594 18.225 13.0594 23.5219C13.0594 25.5844 13.8562 27.7969 14.85 28.9969C15.0469 29.2312 15.075 29.4469 15.0187 29.6813C14.8406 30.4406 14.4281 32.0719 14.3531 32.4C14.25 32.8406 14.0063 32.9344 13.5469 32.7188C10.5469 31.3219 8.67188 26.9438 8.67188 23.4188C8.67188 15.8438 14.175 8.89688 24.525 8.89688C32.85 8.89688 39.3187 14.8313 39.3187 22.7625C39.3187 31.0312 34.1063 37.6875 26.8688 37.6875C24.4406 37.6875 22.1531 36.4219 21.3656 34.9313C21.3656 34.9313 20.1656 39.5156 19.875 40.6406C19.3312 42.7219 17.8687 45.3375 16.8937 46.9313C19.1437 47.625 21.525 48 24 48C37.2562 48 48 37.2562 48 24C48 10.7438 37.2562 0 24 0Z"/>
</symbol>

<!-- Other -->

<symbol viewBox="0 -960 960 960" id="icon-close">
    <path fill="currentColor" d="m256-200-56-56 224-224-224-224 56-56 224 224 224-224 56 56-224 224 224 224-56 56-224-224-224 224Z"/>
</symbol>

  <symbol viewBox="0 -960 960 960" id="icon-check">
    <path fill="currentColor" d="m424-296 282-282-56-56-226 226-114-114-56 56 170 170Zm56 216q-83 0-156-31.5T197-197q-54-54-85.5-127T80-480q0-83 31.5-156T197-763q54-54 127-85.5T480-880q83 0 156 31.5T763-763q54 54 85.5 127T880-480q0 83-31.5 156T763-197q-54 54-127 85.5T480-80Z"/>
  </symbol>

  <symbol viewBox="0 -960 960 960"  id="icon-edit" >
    <path fill="currentColor" d="M200-200h57l391-391-57-57-391 391v57Zm-80 80v-170l528-527q12-11 26.5-17t30.5-6q16 0 31 6t26 18l55 56q12 11 17.5 26t5.5 30q0 16-5.5 30.5T817-647L290-120H120Zm640-584-56-56 56 56Zm-141 85-28-29 57 57-29-28Z"/>
  </symbol>

  <symbol viewBox="0 -960 960 960" id="icon-pending">
    <path fill="currentColor" d="M280-420q25 0 42.5-17.5T340-480q0-25-17.5-42.5T280-540q-25 0-42.5 17.5T220-480q0 25 17.5 42.5T280-420Zm200 0q25 0 42.5-17.5T540-480q0-25-17.5-42.5T480-540q-25 0-42.5 17.5T420-480q0 25 17.5 42.5T480-420Zm200 0q25 0 42.5-17.5T740-480q0-25-17.5-42.5T680-540q-25 0-42.5 17.5T620-480q0 25 17.5 42.5T680-420ZM480-80q-83 0-156-31.5T197-197q-54-54-85.5-127T80-480q0-83 31.5-156T197-763q54-54 127-85.5T480-880q83 0 156 31.5T763-763q54 54 85.5 127T880-480q0 83-31.5 156T763-197q-54 54-127 85.5T480-80Z"/>
  </symbol>

  <symbol viewBox="0 -960 960 960" id="icon-excluded">
    <path fill="currentColor" d="M819-28 701-146q-48 32-103.5 49T480-80q-83 0-156-31.5T197-197q-54-54-85.5-127T80-480q0-62 17-117.5T146-701L27-820l57-57L876-85l-57 57Zm-4-232L602-474l104-104-56-56-104 105-286-286q48-31 103.5-48T480-880q83 0 156 31.5T763-763q54 54 85.5 127T880-480q0 61-17 116.5T815-260Zm-391-36 64-64-56-56-8 8-114-114-56 56 170 170Z"/>
  </symbol>

  <symbol viewBox="0 -960 960 960" id="icon-download">
    <path fill="currentColor" d="M480-320 280-520l56-58 104 104v-326h80v326l104-104 56 58-200 200ZM240-160q-33 0-56.5-23.5T160-240v-120h80v120h480v-120h80v120q0 33-23.5 56.5T720-160H240Z"/>
  </symbol>

  <symbol viewBox="0 -960 960 960" id="icon-upload">
    <path fill="currentColor" d="M440-320v-326L336-542l-56-58 200-200 200 200-56 58-104-104v326h-80ZM240-160q-33 0-56.5-23.5T160-240v-120h80v120h480v-120h80v120q0 33-23.5 56.5T720-160H240Z"/>
  </symbol>

  <symbol viewBox="0 -960 960 960" id="icon-open-in-new">
    <path fill="currentColor" d="M200-120q-33 0-56.5-23.5T120-200v-560q0-33 23.5-56.5T200-840h280v80H200v560h560v-280h80v280q0 33-23.5 56.5T760-120H200Zm188-212-56-56 372-372H560v-80h280v280h-80v-144L388-332Z"/>
  </symbol>

  <symbol viewBox="0 -960 960 960" id="icon-copy">
    <path fill="currentColor" d="M360-240q-33 0-56.5-23.5T280-320v-480q0-33 23.5-56.5T360-880h360q33 0 56.5 23.5T800-800v480q0 33-23.5 56.5T720-240H360Zm0-80h360v-480H360v480ZM200-80q-33 0-56.5-23.5T120-160v-560h80v560h440v80H200Zm160-240v-480 480Z"/>
  </symbol>

</svg>