<svg xmlns="http://www.w3.org/2000/svg" style="display: none;">

   <!-- Basic -->

  <symbol viewBox="0 -960 960 960" id="icon-arrow-down">
    <path fill="currentColor" d="M480-344 240-584l56-56 184 184 184-184 56 56-240 240Z"/>
  </symbol>

  <symbol viewBox="0 -960 960 960" id="icon-close">
    <path fill="currentColor" d="m256-200-56-56 224-224-224-224 56-56 224 224 224-224 56 56-224 224 224 224-56 56-224-224-224 224Z"/>
</symbol>

 <!-- Social media -->

 <symbol viewBox="0 0 48 48" id="icon-facebook">
    <path fill="currentColor" d="M24 0C10.7453 0 0 10.7453 0 24C0 35.255 7.74912 44.6995 18.2026 47.2934V31.3344H13.2538V24H18.2026V20.8397C18.2026 12.671 21.8995 8.8848 29.9194 8.8848C31.44 8.8848 34.0637 9.18336 35.137 9.48096V16.129C34.5706 16.0694 33.5866 16.0397 32.3645 16.0397C28.4294 16.0397 26.9088 17.5306 26.9088 21.4061V24H34.7482L33.4013 31.3344H26.9088V47.8243C38.7926 46.3891 48.001 36.2707 48.001 24C48 10.7453 37.2547 0 24 0Z"/>
</symbol>

<symbol viewBox="0 0 48 48" id="icon-instagram">
  <path fill="currentColor" d="M24 4.3c6.4 0 7.2 0 9.7.2 2.3 0 3.6.5 4.4.8 1.2.4 2 1 2.8 1.8.8.8 1.4 1.6 1.8 2.7.3.9.7 2.2.8 4.5.1 2.5.2 3.3.2 9.7 0 6.4 0 7.2-.2 9.7 0 2.3-.5 3.6-.8 4.4-.4 1.1-1 2-1.8 2.8-.8.8-1.6 1.3-2.8 1.8-.8.3-2 .7-4.4.8l-9.7.1-9.7-.1c-2.3-.1-3.6-.5-4.4-.8-1.2-.5-2-1-2.8-1.8A7.4 7.4 0 0 1 5.3 38c-.3-.8-.7-2-.8-4.4-.1-2.6-.2-3.3-.2-9.7 0-6.4 0-7.2.2-9.7 0-2.4.5-3.6.8-4.5.4-1 1-1.9 1.8-2.7.8-.9 1.6-1.4 2.8-1.8.8-.3 2-.7 4.4-.8 2.5-.2 3.3-.2 9.7-.2ZM24 0l-9.9.1c-2.5.2-4.3.6-5.8 1.2a11.8 11.8 0 0 0-7 7C.7 9.8.3 11.6 0 14L0 24l.1 9.9c.2 2.5.6 4.3 1.2 5.8a11.7 11.7 0 0 0 7 7c1.5.6 3.3 1 5.8 1.1a176 176 0 0 0 19.8 0c2.5 0 4.3-.5 5.8-1 1.6-.7 3-1.5 4.3-2.8 1.3-1.4 2.1-2.7 2.7-4.3.6-1.5 1-3.3 1.1-5.8.1-2.6.2-3.4.2-9.9s0-7.3-.2-9.9c0-2.5-.5-4.3-1-5.8-.7-1.6-1.5-3-2.8-4.3a11.7 11.7 0 0 0-4.3-2.7C38.2.7 36.4.3 34 0L24 0Z M24 11.7a12.3 12.3 0 1 0 0 24.6 12.3 12.3 0 0 0 0-24.6ZM24 32a8 8 0 1 1 0-16 8 8 0 0 1 0 16ZM39.7 11.2a2.9 2.9 0 1 1-5.8 0 2.9 2.9 0 0 1 5.8 0Z"></path>
</symbol>

<!-- USPs -->

<symbol viewBox="0 -960 960 960" id="icon-local-shipping">
    <path fill="currentColor" d="M240-160q-50 0-85-35t-35-85H40v-440q0-33 23.5-56.5T120-800h560v160h120l120 160v200h-80q0 50-35 85t-85 35q-50 0-85-35t-35-85H360q0 50-35 85t-85 35Zm0-80q17 0 28.5-11.5T280-280q0-17-11.5-28.5T240-320q-17 0-28.5 11.5T200-280q0 17 11.5 28.5T240-240ZM120-360h32q17-18 39-29t49-11q27 0 49 11t39 29h272v-360H120v360Zm600 120q17 0 28.5-11.5T760-280q0-17-11.5-28.5T720-320q-17 0-28.5 11.5T680-280q0 17 11.5 28.5T720-240Zm-40-200h170l-90-120h-80v120ZM360-540Z"/>
</symbol>

<symbol viewBox="0 -960 960 960" id="icon-sanitizer">
    <path fill="currentColor" d="M680-640q-25 0-42.5-17.5T620-700q0-17 17-45t43-55q26 27 43 55t17 45q0 25-17.5 42.5T680-640Zm100 280q-42 0-71-29t-29-71q0-35 31-86.5t69-93.5q38 42 69 93.5t31 86.5q0 42-29 71t-71 29ZM360-240h80v-80h80v-80h-80v-80h-80v80h-80v80h80v80ZM240-80q-33 0-56.5-23.5T160-160v-320q0-90 57-156t143-80v-84h-80v-80h240q34 0 64 10.5t56 29.5l-58 58q-14-8-29.5-13t-32.5-5h-80v84q86 14 143 80t57 156v320q0 33-23.5 56.5T560-80H240Zm0-80h320v-320q0-66-47-113t-113-47q-66 0-113 47t-47 113v320Zm0 0h320-320Z"/>
</symbol>

<symbol viewBox="0 -960 960 960" id="icon-workspace-premium">
    <path fill="currentColor" d="m387-412 35-114-92-74h114l36-112 36 112h114l-93 74 35 114-92-71-93 71ZM240-40v-309q-38-42-59-96t-21-115q0-134 93-227t227-93q134 0 227 93t93 227q0 61-21 115t-59 96v309l-240-80-240 80Zm240-280q100 0 170-70t70-170q0-100-70-170t-170-70q-100 0-170 70t-70 170q0 100 70 170t170 70ZM320-159l160-41 160 41v-124q-35 20-75.5 31.5T480-240q-44 0-84.5-11.5T320-283v124Zm160-62Z"/>
</symbol>

<symbol viewBox="0 -960 960 960" id="icon-volunteer-activism">
    <path fill="currentColor" d="M640-440 474-602q-31-30-52.5-66.5T400-748q0-55 38.5-93.5T532-880q32 0 60 13.5t48 36.5q20-23 48-36.5t60-13.5q55 0 93.5 38.5T880-748q0 43-21 79.5T807-602L640-440Zm0-112 109-107q19-19 35-40.5t16-48.5q0-22-15-37t-37-15q-14 0-26.5 5.5T700-778l-60 72-60-72q-9-11-21.5-16.5T532-800q-22 0-37 15t-15 37q0 27 16 48.5t35 40.5l109 107ZM280-220l278 76 238-74q-5-9-14.5-15.5T760-240H558q-27 0-43-2t-33-8l-93-31 22-78 81 27q17 5 40 8t68 4q0-11-6.5-21T578-354l-234-86h-64v220ZM40-80v-440h304q7 0 14 1.5t13 3.5l235 87q33 12 53.5 42t20.5 66h80q50 0 85 33t35 87v40L560-60l-280-78v58H40Zm80-80h80v-280h-80v280Zm520-546Z"/>
</symbol>

<symbol viewBox="0 -960 960 960" id="icon-balance">
    <path fill="currentColor" d="M80-120v-80h360v-447q-26-9-45-28t-28-45H240l120 280q0 50-41 85t-99 35q-58 0-99-35t-41-85l120-280h-80v-80h247q12-35 43-57.5t70-22.5q39 0 70 22.5t43 57.5h247v80h-80l120 280q0 50-41 85t-99 35q-58 0-99-35t-41-85l120-280H593q-9 26-28 45t-45 28v447h360v80H80Zm585-320h150l-75-174-75 174Zm-520 0h150l-75-174-75 174Zm335-280q17 0 28.5-11.5T520-760q0-17-11.5-28.5T480-800q-17 0-28.5 11.5T440-760q0 17 11.5 28.5T480-720Z"/>
</symbol>

<symbol viewBox="0 -960 960 960" id="icon-star-shine">
    <path fill="currentColor" d="M852-212 732-332l56-56 120 120-56 56ZM708-692l-56-56 120-120 56 56-120 120Zm-456 0L132-812l56-56 120 120-56 56ZM108-212l-56-56 120-120 56 56-120 120Zm246-75 126-76 126 77-33-144 111-96-146-13-58-136-58 135-146 13 111 97-33 143ZM233-120l65-281L80-590l288-25 112-265 112 265 288 25-218 189 65 281-247-149-247 149Zm247-361Z"/>
</symbol>

</svg>