<svg xmlns="http://www.w3.org/2000/svg" width="386" height="386" fill="none" viewBox="0 0 386 386"><rect width="386" height="386" fill="#ffe6cd" rx="88"/><path fill="#f6bc82" d="M313.3 244.28a96 96 0 0 1-2.13 14.14c-5.37 24.1-24.04 40.19-41.6 52.74l-.4.29-.81.59a95 95 0 0 0-5.76 4.52 65 65 0 0 0-7.33 7.3 79 79 0 0 0-9.6 14.2 78 78 0 0 0-2.16 4.5 92 92 0 0 0-21.56-8.62c-7.31-1.86-14.32-2.22-19.6-2.33-22.32-.44-47.84-3.12-67.9-19.63a130 130 0 0 1-13.55-12.84c-12.77-14-19.37-27.13-23.9-36.35-9.2-18.79-12.82-34.35-13.63-37.97a163 163 0 0 1-2.66-15.26 33 33 0 0 1 .59-11.42v-.04l.28-1.1.06-.2.24-.84.19-.6a30 30 0 0 1 1.42-3.6l.24-.5.25-.5.25-.5.54-.99.29-.48.29-.48.03-.02 1.1-.6 1-.54.54-.3.54-.29 1.06-.56 1.04-.55.54-.28.54-.29 1.03-.54 1.02-.52.55-.28.54-.29 1.06-.54 1.03-.52.55-.27.57-.29 1.04-.52 1-.5.55-.26.55-.27 1.1-.54.9-.43.55-.26.54-.26 1.22-.59.79-.37.55-.25.52-.25 1.36-.63 1.27-.58.49-.22 1.48-.68.63-.28.5-.22.4-.18 2.08-.92.4-.17 2.5-1.09.16-.06.27-.12a379 379 0 0 1 42.83-15.28l.15-.05h.02l3.1-.88.22-.06.1-.03a299 299 0 0 1 6.59-1.78l.27-.07 2.6-.66.44-.11.42-.1 2.33-.58.16-.03.47-.12.5-.12 2.1-.5.28-.06.51-.12.57-.13 1.8-.4.44-.1.55-.13.66-.15.26-.05.26-.07.5-.1h.01l.64-.14.2-.04h.03l.04-.01.01-.01h.03l1.76-.37.17-.04a359 359 0 0 1 34.34-5.38 372 372 0 0 1 40.2-2.13c3.62 0 7.31.04 10.96.14l.35.01q1.38.05 2.84.05a33 33 0 0 0 5.83-.46 18 18 0 0 1 1.04.98l.14.14.4.42.09.1.2.23a19 19 0 0 1 2.04 2.87c2.32 4.02 4.75 8.6 7.11 13.72 6.32 13.68 9.12 24.6 11.65 34.65 4.4 17.47 7.45 31.04 6.14 49.25"/><path fill="#7c552d" d="M61.55 182.54c-1.97-.86-3.3-2.55-4.08-5.18-5.11-17.38 9.47-36.28 14.06-41.66 8.54-10 20.32-19.38 36-28.66 21.08-12.48 45.4-21.08 72.28-25.57a183.2 183.2 0 0 1 61.56.14c16.6 2.86 33.47 7.1 44.48 18.65 4.29 4.5 8.45 12.2 6.07 19.13-1.63 4.77-3.52 7.75-5.94 9.4q-.86.6-1.88.96l-.89.27-.04.01q-.49.14-1 .21c-1.84.3-3.88.25-6.04.19l-.36-.01c-5.52-.15-11.08-.19-16.51-.12-24.3.3-48.44 2.9-71.72 7.73l-.18.04q-.92.19-1.84.39h-.04l-.23.05-.48.1q-.59.11-1.27.28-.62.16-1.25.28l-2.3.52-1.12.26-2.46.58-1 .24-2.57.63-.88.22-2.68.68-.65.18-2.9.76-.54.15-2.99.82-.34.1-3.19.9-.18.06a389 389 0 0 0-44.18 15.76l-.43.18-2.59 1.13-.78.33-2.19.98-1.16.51-2.04.93-1.3.6-1.94.9-1.39.65-1.81.87-1.5.72-1.7.83-1.6.78-1.66.84-1.62.81-1.66.85-1.61.83-1.63.86-1.63.86-1.65.88-1.59.86-1.68.92-1.55.85-1.7.96-1.47.83c-4.84 2.42-9.75 3.09-12.84 1.75"/><path fill="#483e35" d="M161.22 33.73c1.15-2.7 1-5.74-.4-8.32a9.5 9.5 0 0 0-6.77-4.85 38.3 38.3 0 0 0-23.2 3.26 9.5 9.5 0 0 0-5.12 6.26 85.55 85.55 0 0 0 3.47 53.48l1.94 4.83 4.97-1.55c1.28-.4 2.55-.77 3.9-1.16l3.62-1.07c2.8-.86 5.04-1.68 7.06-2.58l3.6-1.6-.26-3.95a93 93 0 0 1 .26-15.98 93 93 0 0 1 6.93-26.77M115.01 241.57a4 4 0 0 1-3.92-3.26 22.3 22.3 0 0 1 14.4-25.04 22.2 22.2 0 0 1 27.18 11.18 4 4 0 0 1-7.16 3.53 14.2 14.2 0 0 0-17.38-7.17 14.3 14.3 0 0 0-9.2 16.03 4 4 0 0 1-3.92 4.73M230.78 203.9a4 4 0 0 1-3.91-3.25 22.3 22.3 0 0 1 14.4-25.04 22.2 22.2 0 0 1 27.17 11.17 4 4 0 0 1-7.16 3.54 14.2 14.2 0 0 0-17.38-7.18 14.3 14.3 0 0 0-9.19 16.04 4 4 0 0 1-3.93 4.73M218.12 284.19c-15.12 4.86-30.97-1.17-39.6-11.08a33 33 0 0 1-3.47-4.79 3.75 3.75 0 0 1 2.5-5.59 228 228 0 0 0 59.38-20.68 3.75 3.75 0 0 1 5.39 2.58c.83 4.03 1.27 9.6-.42 15.75-4.79 17.38-22.16 23.29-23.78 23.8M110.17 133.37h-.03a3.63 3.63 0 0 1-3.6-3.67 15.3 15.3 0 0 1 9.43-14.05c5.79-2.4 12.6-.96 16.96 3.6a3.63 3.63 0 0 1-5.24 5.01 8.1 8.1 0 0 0-8.94-1.9 8.1 8.1 0 0 0-4.95 7.41c-.02 2-1.64 3.6-3.63 3.6M81.48 165.75h-.03a3.63 3.63 0 0 1-3.6-3.67 15.3 15.3 0 0 1 9.43-14.05c5.8-2.4 12.61-.96 16.97 3.6a3.63 3.63 0 0 1-5.24 5.01 8.1 8.1 0 0 0-8.94-1.9 8.1 8.1 0 0 0-4.96 7.41c-.02 2-1.64 3.6-3.63 3.6M153.66 137.99q-.2 0-.4-.02a3.63 3.63 0 0 1-3.21-4.01 15.3 15.3 0 0 1 10.81-13.02c6-1.8 12.64.33 16.51 5.3a3.63 3.63 0 0 1-5.73 4.46 8.1 8.1 0 0 0-8.7-2.8 8.1 8.1 0 0 0-5.68 6.86 3.63 3.63 0 0 1-3.6 3.23M186.74 106.62a3.62 3.62 0 0 1-3.5-4.6A15.3 15.3 0 0 1 196 90.88a15.4 15.4 0 0 1 15.45 7.87 3.63 3.63 0 0 1-6.37 3.5 8.1 8.1 0 0 0-8.14-4.17 8.1 8.1 0 0 0-6.7 5.87 3.6 3.6 0 0 1-3.5 2.66M256.07 118.46c-1.5 0-2.9-.93-3.42-2.43a8.1 8.1 0 0 0-7.35-5.43 8.1 8.1 0 0 0-7.58 4.7 3.63 3.63 0 1 1-6.58-3.07c2.6-5.6 8.26-9.1 14.4-8.89 6.26.2 11.87 4.34 13.96 10.3a3.63 3.63 0 0 1-3.43 4.82"/><path fill="#483e35" d="M323.05 191.02c-2.48-9.87-5.57-22.16-12.66-37.52a184 184 0 0 0-7.8-15.06 36 36 0 0 0-1.21-1.93c3-3.86 4.72-8.02 5.81-11.11l.25-.7c.97-2.84 1.5-5.85 1.57-8.92a34.6 34.6 0 0 0-3.67-15.88 44 44 0 0 0-7.63-10.97c-6.79-7.13-15.39-12.56-26.28-16.62-9.51-3.56-19.58-5.54-27.28-6.87a200 200 0 0 0-67.04-.15q-3.75.63-7.53 1.37l-.4.05-.62.15-.58.12-2.7.57-.3.07q-.44.08-.86.18l-1.01.23-.57.12-.92.22q-.38.07-.74.17l-1.72.4-1.31.33-1.16.29-1.26.32-1.19.3-1.19.33-.07.02-1.2.32-.08.03-1.1.3-1.8.51-.64.19-1 .3-.53.16-.51.15-1.8.55-1.69.53-.18.06-1.3.42h-.03l-.8.27-.7.24-.87.29-.87.3-.3.1-1.17.4-1 .36-.6.22-.72.26-1.1.4-1.24.47-.22.08-.87.33-.07.03-1.16.44-1.05.41-.74.3-.72.29-.56.23-.25.1-1.32.54-.24.1-.52.22-.19.08-1.2.51-.53.23-.33.15-.17.07-2.65 1.18-.7.32-1.05.48-.85.4-2.11 1-.18.09-1.25.6-.94.47-1.25.63-.92.47-1.1.57-.43.22-.61.32-1.24.66-.17.1-.72.38-1.27.7-.29.16-.3.17-.23.13-1.42.8-.24.13q-.23.15-.43.25-1.1.63-2.08 1.22c-17.26 10.21-30.39 20.72-40.12 32.13a89 89 0 0 0-2.94 3.64l-.15.18q-1.12 1.47-2.19 2.99l-.06.09-.2.28q-1.41 2.03-2.74 4.15l-.88 1.43q-.8 1.34-1.58 2.75l-.15.27a79 79 0 0 0-4.01 8.51 67 67 0 0 0-2.1 6.14l-.26.98-.61 2.55a54 54 0 0 0-.62 3.36q-.6 3.95-.57 7.76v.17q.03 1.2.1 2.32l.02.48.01.03q.07.95.19 1.9l.08.68q.45 3.25 1.34 6.28.35 1.2.81 2.37c3.04 7.78 8.46 11.49 12.48 13.23a25 25 0 0 0 9.38 2.02 49 49 0 0 0 .03 12c.7 5.62 1.69 11.27 2.93 16.8 1.72 7.69 5.94 23.3 14.9 41.6 4.41 8.99 11.78 24.03 26.52 40.19 4.7 5.14 9.67 9.87 15.24 14.45 11.1 9.14 24.1 15.4 39.71 19.13 14.06 3.36 27.84 4.03 38.28 4.24 4.4.08 10.2.37 15.87 1.82a75 75 0 0 1 17.7 7.1l15.7 8.67 7.23-16.43a62 62 0 0 1 1.7-3.55 62 62 0 0 1 7.58-11.18c3.5-4.15 7.88-7.5 11.3-9.94 8.28-5.92 18.97-14.06 28.17-24.58a95 95 0 0 0 12-17 80 80 0 0 0 7.9-20.95 113 113 0 0 0 2.48-16.52c1.46-20.37-1.81-35.41-6.6-54.44M243.5 342.57a92 92 0 0 0-21.55-8.62c-7.31-1.87-14.32-2.23-19.6-2.34-22.32-.44-47.84-3.12-67.9-19.63a130 130 0 0 1-13.55-12.84c-12.77-14-19.37-27.13-23.9-36.35-9.2-18.79-12.82-34.35-13.63-37.97a163 163 0 0 1-2.66-15.26c-.95-7.59.8-15.05 4.64-21.25l.03-.02 1.1-.6 1-.54.54-.3.54-.29 1.06-.56 1.04-.55.54-.28.54-.29 1.03-.54 1.02-.52.55-.28.54-.29 1.06-.54 1.03-.52.55-.27.57-.29 1.04-.52 1-.5.55-.26.55-.27 1.1-.54.9-.43.55-.26.54-.26 1.22-.59.79-.37.55-.25.52-.25 1.36-.63 1.27-.58.49-.22 1.48-.68.63-.28.5-.22.4-.18 2.08-.92.4-.17 2.5-1.09.16-.06.27-.12a379 379 0 0 1 42.83-15.28l.15-.05h.02l3.1-.88.22-.06.1-.03 2.9-.8.31-.08.22-.06 3.16-.84.27-.07 2.6-.66.44-.11.42-.1 2.33-.58.16-.03.47-.12.5-.12 2.1-.5.28-.06.51-.12.57-.13 1.8-.4.44-.1.55-.13.66-.15.26-.05.26-.07.5-.1h.01l.64-.14.2-.04h.03l.04-.01.01-.01h.03l1.76-.37.17-.04a358 358 0 0 1 34.34-5.38 372 372 0 0 1 40.2-2.13c3.62 0 7.31.04 10.96.14l.35.01q1.38.05 2.84.05a33 33 0 0 0 5.83-.46 19 19 0 0 1 3.9 4.74c2.33 4.02 4.76 8.6 7.12 13.72 6.32 13.68 9.12 24.6 11.65 34.65 4.4 17.47 7.45 31.04 6.14 49.25a96 96 0 0 1-2.12 14.14c-5.37 24.1-24.04 40.19-41.6 52.74-2.1 1.5-4.5 3.3-6.97 5.4a65 65 0 0 0-7.33 7.3 79 79 0 0 0-9.6 14.2 77 77 0 0 0-2.16 4.5M59.35 180.95a8 8 0 0 1-1.53-2.56l-.35-1.02a26 26 0 0 1-.82-3.87l-.05-.41q-.09-.7-.13-1.4l-.01-.11q-.04-.79-.06-1.58v-.02a33 33 0 0 1 .81-7.49l.26-1.1.18-.73a50 50 0 0 1 1.76-5.28 58 58 0 0 1 2.13-4.75l.4-.76a63 63 0 0 1 2.28-4.05l.46-.75q1.17-1.87 2.3-3.46l.2-.3a82 82 0 0 1 1.82-2.48l.12-.15a76 76 0 0 1 2.4-2.97c8.55-10.01 20.33-19.4 36-28.67l1.9-1.11.62-.35 1.3-.74.75-.41 1.19-.65.8-.44 1.15-.61.83-.44 1.14-.59.85-.43 1.15-.58.85-.42 1.17-.57.85-.4 1.23-.6.79-.36 1.44-.66.6-.27 2.03-.9.67-.29 1.4-.6.87-.36 1.2-.5.95-.38 1.16-.47.98-.38 1.13-.44 1.01-.38 1.13-.42 1.02-.38 1.13-.4 1.03-.37 1.15-.4 1.02-.35 1.19-.4 1-.33 1.41-.46 1.6-.5 1.32-.41 1.08-.32 1.15-.34 1.12-.33L155 87l1.15-.32 1.1-.3 1.17-.32 1.1-.28 1.18-.3 1.1-.28 1.2-.3 1.1-.25 1.2-.29 1.1-.25 1.23-.27 1.09-.24 2.53-.53.94-.19q3.78-.75 7.62-1.4a184 184 0 0 1 61.55.14c16.6 2.86 33.48 7.1 44.5 18.65 3.41 3.59 6.75 9.22 6.75 14.87v.3a13 13 0 0 1-.69 3.95 28 28 0 0 1-2.67 5.88 12 12 0 0 1-3.2 3.49l-.07.04q-.87.6-1.88.96l-.89.27-.04.01q-.49.13-1 .21-1.66.25-3.52.23-1.23 0-2.52-.04l-.36-.01a430 430 0 0 0-16.51-.12c-24.3.3-48.44 2.9-71.72 7.73l-.18.04q-.92.19-1.84.39h-.04l-.23.05-.48.1q-.59.11-1.27.28-.62.15-1.25.28l-2.3.52-1.12.26-2.46.58-1 .24-2.57.63-.88.22-2.68.68-.65.18a242 242 0 0 0-6.43 1.73l-.34.1-3.19.9-.18.06a389 389 0 0 0-44.18 15.76l-.43.18-2.59 1.12-.78.34-2.19.98-1.16.51-2.04.93-1.3.6-1.94.9-1.39.65-1.8.87q-.75.35-1.51.72l-1.7.83-1.6.78-1.65.84-1.63.81-1.66.85-1.61.83-1.63.86-1.63.86-1.65.88-1.59.86-1.68.92-1.55.85-.47.27-1.23.7-1.47.82c-3.2 1.6-6.41 2.43-9.12 2.43-1.4 0-2.67-.23-3.72-.68a6 6 0 0 1-2.2-1.59"/></svg>